<?xml version="1.0" standalone="no"?>
<!DOCTYPE svg PUBLIC "-//W3C//DTD SVG 20010904//EN" "http://www.w3.org/TR/2001/REC-SVG-20010904/DTD/svg10.dtd">
<svg version="1.0" xmlns="http://www.w3.org/2000/svg"
  width="500.000000pt" height="280.000000pt" viewBox="0 0 500.000000 280.000000"
  preserveAspectRatio="xMidYMid meet">

  <g transform="translate(0.000000,280.000000) scale(0.100000,-0.100000)"
    fill="#f1f1f1" stroke="none">
    <path
      d="M1612 2678 c-16 -16 -15 -61 3 -105 8 -19 15 -49 15 -65 0 -16 5 -39
11 -50 9 -18 8 -24 -7 -35 -10 -7 -29 -13 -43 -13 -14 0 -44 -11 -66 -24 -22
-14 -71 -42 -110 -63 -38 -21 -99 -64 -135 -95 -36 -32 -70 -58 -77 -58 -6 0
-25 12 -41 28 -17 15 -54 50 -84 77 -49 46 -75 67 -133 110 -25 18 -75 20 -75
2 0 -14 37 -45 85 -70 17 -8 55 -39 85 -67 30 -29 71 -67 91 -86 l37 -35 -19
-37 c-72 -143 -76 -168 -83 -477 -4 -150 12 -217 69 -297 19 -25 43 -64 54
-87 28 -53 140 -165 221 -218 35 -24 69 -43 75 -43 5 0 37 -17 70 -38 33 -21
68 -41 77 -45 12 -4 18 -20 20 -54 l3 -48 145 1 c392 2 404 3 456 29 49 25 51
25 320 25 193 0 295 -4 350 -14 133 -24 225 -30 235 -15 10 17 -8 39 -33 39
-40 0 -211 64 -298 112 -16 8 -139 68 -206 99 -66 31 -93 61 -88 97 6 38 -20
90 -61 124 -28 23 -51 32 -160 60 -72 18 -72 18 -25 42 191 98 255 152 371
316 28 39 33 56 41 139 9 101 -6 211 -37 274 -8 17 -15 31 -15 33 0 2 19 -6
43 -16 49 -23 87 -26 87 -7 0 14 -11 20 -90 53 -50 21 -100 60 -100 78 0 17
-115 125 -192 180 -37 26 -118 70 -180 97 -62 27 -128 57 -147 67 -19 9 -41
18 -50 18 -9 1 -45 9 -81 18 -36 10 -80 19 -97 22 -18 2 -72 11 -119 19 -104
18 -97 18 -112 3z m173 -59 c99 -15 243 -49 290 -69 163 -71 279 -128 303
-150 9 -9 38 -31 65 -49 26 -19 47 -38 47 -43 0 -12 -6 -10 -63 21 -76 43
-197 83 -327 108 -25 5 -126 10 -225 12 -122 2 -182 7 -187 14 -4 7 -8 26 -8
43 0 18 -7 45 -15 60 -8 16 -15 38 -15 50 0 23 3 23 135 3z m280 -218 c140
-20 272 -63 389 -128 85 -47 110 -67 138 -108 58 -83 73 -135 72 -255 -1 -120
-17 -169 -76 -236 -18 -22 -45 -56 -58 -77 -14 -20 -33 -40 -43 -43 -9 -3 -21
-13 -26 -23 -6 -10 -38 -32 -73 -50 -35 -18 -81 -43 -103 -56 -37 -22 -46 -24
-172 -20 l-134 5 -69 60 c-39 32 -82 66 -97 74 -16 8 -43 30 -62 50 l-34 35
-2 368 c-2 202 -5 377 -7 388 -2 15 4 21 27 25 51 9 236 4 330 -9z m-399 -118
c9 -119 11 -591 3 -605 -3 -5 -14 3 -23 17 -9 14 -47 57 -84 95 -37 37 -86 90
-110 117 -78 86 -200 211 -214 216 -9 4 -4 14 17 32 17 14 41 37 55 49 28 26
155 106 169 106 4 0 20 10 35 21 22 17 85 39 138 48 3 1 9 -43 14 -96z m-431
-213 c11 -10 29 -28 40 -38 11 -11 61 -63 110 -117 50 -53 128 -136 174 -184
127 -131 116 -94 113 -406 -1 -149 -7 -286 -12 -305 -6 -19 -10 -50 -10 -68 0
-36 7 -38 -79 15 -20 12 -58 34 -86 49 -91 47 -125 70 -148 100 -12 17 -41 47
-64 68 -24 21 -43 44 -43 51 0 7 -20 41 -45 74 -80 109 -85 130 -81 368 3 195
5 212 29 273 60 153 63 157 102 120z m533 -537 c101 -76 172 -137 177 -154 4
-10 14 -19 24 -19 9 0 62 -27 116 -61 55 -33 169 -95 253 -137 83 -42 152 -81
152 -86 0 -40 -139 -185 -179 -187 -50 -2 -91 -8 -126 -18 -122 -36 -280 -40
-365 -10 -30 11 -70 25 -89 30 l-34 11 9 66 c4 37 9 175 10 307 1 267 2 285
10 285 3 0 22 -12 42 -27z m462 -210 c169 -41 198 -52 229 -90 30 -36 43 -74
31 -92 -6 -11 -204 85 -355 173 -91 52 -86 53 95 9z m320 -263 c0 -5 33 -25
73 -43 166 -79 227 -107 234 -107 4 0 19 -10 33 -21 24 -20 24 -20 2 -9 -16 8
-95 11 -245 10 -278 -3 -258 -5 -222 28 36 32 105 125 105 141 0 6 5 11 10 11
6 0 10 -4 10 -10z m-773 -222 l28 -12 -29 -4 c-41 -5 -76 6 -76 24 0 17 23 15
77 -8z" />
  </g>
</svg>